<svg xmlns="http://www.w3.org/2000/svg" xmlns:xlink="http://www.w3.org/1999/xlink" version="1.1" x="0px" y="0px" viewBox="0 0 100 125" enable-background="new 0 0 100 100" xml:space="preserve"><path d="M50,17.417c-17.967,0-32.584,14.617-32.584,32.583S32.033,82.583,50,82.583S82.584,67.966,82.584,50  S67.967,17.417,50,17.417z M50,79.583c-16.313,0-29.584-13.271-29.584-29.583S33.688,20.417,50,20.417S79.584,33.688,79.584,50  S66.313,79.583,50,79.583z M63.022,36.978c-0.586-0.586-1.535-0.586-2.121,0L50,47.879L39.099,36.978  c-0.586-0.586-1.535-0.586-2.121,0c-0.586,0.585-0.586,1.536,0,2.121L47.879,50L36.978,60.901c-0.586,0.585-0.586,1.536,0,2.121  c0.293,0.293,0.677,0.439,1.061,0.439s0.768-0.146,1.061-0.439L50,52.121l10.901,10.901c0.293,0.293,0.677,0.439,1.061,0.439  s0.768-0.146,1.061-0.439c0.586-0.585,0.586-1.536,0-2.121L52.121,50l10.901-10.901C63.608,38.513,63.608,37.563,63.022,36.978z"/><text x="0" y="115" fill="#000000" font-size="5px" font-weight="bold" font-family="'Helvetica Neue', Helvetica, Arial-Unicode, Arial, Sans-serif">Created by amante de icono</text><text x="0" y="120" fill="#000000" font-size="5px" font-weight="bold" font-family="'Helvetica Neue', Helvetica, Arial-Unicode, Arial, Sans-serif">from the Noun Project</text></svg>