<?xml version="1.0" encoding="UTF-8"?>
<svg width="72px" height="66px" viewBox="0 0 72 66" version="1.1" xmlns="http://www.w3.org/2000/svg" xmlns:xlink="http://www.w3.org/1999/xlink">
    <!-- Generator: sketchtool 41.2 (35397) - http://www.bohemiancoding.com/sketch -->
    <title>38DD7066-F3DF-494F-97AA-BF0128E12B67</title>
    <desc>Created with sketchtool.</desc>
    <defs>
        <linearGradient x1="100%" y1="92.8883586%" x2="-69.6960998%" y2="-61.0972312%" id="linearGradient-1">
            <stop stop-color="#43CEA2" offset="0%"></stop>
            <stop stop-color="#185A9D" offset="100%"></stop>
        </linearGradient>
        <linearGradient x1="128.550482%" y1="86.2153808%" x2="-125.152321%" y2="-92.0072942%" id="linearGradient-2">
            <stop stop-color="#42CCA1" offset="0%"></stop>
            <stop stop-color="#185A9D" offset="100%"></stop>
        </linearGradient>
    </defs>
    <g id="Page-1" stroke="none" stroke-width="1" fill="none" fill-rule="evenodd">
        <g id="Landing-Page" transform="translate(-1048.000000, -767.000000)">
            <g id="Group-11" transform="translate(474.000000, 768.000000)">
                <g id="Group-8" transform="translate(488.000000, 0.000000)">
                    <g id="noun_729336_cc" transform="translate(87.000000, 0.000000)">
                        <g id="Group">
                            <g transform="translate(0.000000, 0.510256)" id="Group-7">
                                <g transform="translate(0.164017, 0.343262)">
                                    <path d="M19.6929546,0.0709345943 C13.8489629,0.0709345943 8.87966721,2.79459043 5.46795541,6.94754218 C2.05624361,11.1004939 0.142955728,16.6671176 0.142955728,22.4761653 C0.142955728,32.2366527 4.0138835,39.3676123 10.1179551,45.3315319 C16.2220268,51.2954515 24.4966743,56.2277712 33.6679537,62.2104909 C34.1996133,62.5578067 34.886294,62.5578067 35.4179536,62.2104909 C44.5892331,56.2277712 52.8638806,51.2954515 58.9679522,45.3315319 C65.0720239,39.3676123 68.9429516,32.2366527 68.9429516,22.4761653 C68.9429516,16.6671176 67.0296637,11.1004939 63.6179519,6.94754218 C60.2062401,2.79459043 55.2369444,0.0709345943 49.3929528,0.0709345943 C42.7441692,0.0709345943 37.4829375,3.22714241 34.5429537,5.79727025 C31.6029699,3.22714241 26.3417382,0.0709345943 19.6929546,0.0709345943 L19.6929546,0.0709345943 Z M19.6929546,3.2716864 C25.9779702,3.2716864 31.4058019,6.99331018 33.3929537,9.02303006 C33.694417,9.33468299 34.1094075,9.51064404 34.5429537,9.51064404 C34.9764998,9.51064404 35.3914904,9.33468299 35.6929536,9.02303006 C37.6801055,6.99331018 43.1079372,3.2716864 49.3929528,3.2716864 C54.2507205,3.2716864 58.2491523,5.47550227 61.1429521,8.99802206 C64.0367519,12.5205419 65.7429518,17.3774136 65.7429518,22.4761653 C65.7429518,31.4148127 62.41388,37.4658524 56.7179524,43.030972 C51.2160887,48.4064917 43.3835212,53.2156114 34.5429537,58.9596911 C25.7023862,53.2156114 17.8698187,48.4064917 12.367955,43.030972 C6.67202734,37.4658524 3.34295554,31.4148127 3.34295554,22.4761653 C3.34295554,17.3774136 5.04915544,12.5205419 7.94295526,8.99802206 C10.8367551,5.47550227 14.8351869,3.2716864 19.6929546,3.2716864 Z" id="Shape" stroke="url(#linearGradient-2)" stroke-width="2" fill="url(#linearGradient-1)"></path>
                                    <text id="$" font-family="Roboto-Medium, Roboto" font-size="24" font-weight="400" fill="#43CEA2">
                                        <tspan x="27.5429537" y="37.7279874">$</tspan>
                                    </text>
                                </g>
                            </g>
                        </g>
                    </g>
                </g>
            </g>
        </g>
    </g>
</svg>