<?xml version="1.0" encoding="UTF-8"?>
<svg width="102px" height="102px" viewBox="0 0 102 102" version="1.1" xmlns="http://www.w3.org/2000/svg" xmlns:xlink="http://www.w3.org/1999/xlink">
    <!-- Generator: sketchtool 41.2 (35397) - http://www.bohemiancoding.com/sketch -->
    <title>72C40BAA-DAB7-4454-8F0B-67E3A315B41B</title>
    <desc>Created with sketchtool.</desc>
    <defs>
        <linearGradient x1="-81.7321565%" y1="177.68349%" x2="265.958441%" y2="-164.655641%" id="linearGradient-1">
            <stop stop-color="#43CEA2" offset="0%"></stop>
            <stop stop-color="#247C9F" offset="87.9949466%"></stop>
            <stop stop-color="#185A9D" offset="100%"></stop>
        </linearGradient>
        <circle id="path-2" cx="37.6444627" cy="37" r="37"></circle>
        <filter x="-50%" y="-50%" width="200%" height="200%" filterUnits="objectBoundingBox" id="filter-3">
            <feOffset dx="0" dy="0" in="SourceAlpha" result="shadowOffsetOuter1"></feOffset>
            <feGaussianBlur stdDeviation="7" in="shadowOffsetOuter1" result="shadowBlurOuter1"></feGaussianBlur>
            <feColorMatrix values="0 0 0 0 0   0 0 0 0 0   0 0 0 0 0  0 0 0 0.211786685 0" type="matrix" in="shadowBlurOuter1"></feColorMatrix>
        </filter>
    </defs>
    <g id="Page-1" stroke="none" stroke-width="1" fill="none" fill-rule="evenodd">
        <g id="Resting-Copy" transform="translate(-1342.000000, -916.000000)">
            <g id="Group-6" transform="translate(1355.500000, 929.813037)">
                <g id="Oval-5">
                    <use fill="black" fill-opacity="1" filter="url(#filter-3)" xlink:href="#path-2"></use>
                    <use fill="url(#linearGradient-1)" fill-rule="evenodd" xlink:href="#path-2"></use>
                </g>
                <path d="M40.2814553,34.3630074 L40.2814553,26.9799572 C40.2814553,25.5294824 39.1008335,24.3424355 37.6444627,24.3424355 C36.1910553,24.3424355 35.0074701,25.5232942 35.0074701,26.9799572 L35.0074701,34.3630074 L27.6244199,34.3630074 C26.1739451,34.3630074 24.9868982,35.5436292 24.9868982,37 C24.9868982,38.4534074 26.1677569,39.6369926 27.6244199,39.6369926 L35.0074701,39.6369926 L35.0074701,47.0200428 C35.0074701,48.4705176 36.1880919,49.6575645 37.6444627,49.6575645 C39.0978701,49.6575645 40.2814553,48.4767058 40.2814553,47.0200428 L40.2814553,39.6369926 L47.6645054,39.6369926 C49.1149803,39.6369926 50.3020272,38.4563708 50.3020272,37 C50.3020272,35.5465926 49.1211685,34.3630074 47.6645054,34.3630074 L40.2814553,34.3630074 Z" id="Combined-Shape" fill="#FFFFFF"></path>
            </g>
        </g>
    </g>
</svg>